<?xml version="1.0" encoding="UTF-8"?>
<svg width="118px" height="138px" viewBox="0 0 118 138" version="1.1" xmlns="http://www.w3.org/2000/svg" xmlns:xlink="http://www.w3.org/1999/xlink" style="background: #000000;">
    <title>logo / glitch / white</title>
    <g id="logo-/-glitch-/-white" stroke="none" stroke-width="1" fill="none" fill-rule="evenodd">
        <rect fill="#000000" x="0" y="0" width="118" height="138"></rect>
        <g id="logo-/-glitch" transform="translate(0.000000, 0.000000)" fill="#F9F9F9">
            <path d="M117.605,0 L117.605,68.605 L73.503,112.704 L53.904,112.704 L29.401,137.207 L29.401,112.704 L2.7000624e-13,112.704 L2.7000624e-13,24.502 L24.5,0 L117.605,0 Z M107.805,9.801 L29.401,9.801 L29.401,83.304 L51.452,83.304 L51.452,100.454 L68.605,83.304 L88.206,83.304 L107.805,63.703 L107.805,9.801 Z M93.1042,26.9518 L93.1042,56.3518 L83.3042,56.3518 L83.3042,26.9518 L93.1042,26.9518 Z M66.1532,26.9518 L66.1532,56.3518 L56.3532,56.3518 L56.3532,26.9518 L66.1532,26.9518 Z" id="Combined-Shape"></path>
        </g>
    </g>
</svg>